<svg width="23" height="23" viewBox="0 0 23 23" fill="none" xmlns="http://www.w3.org/2000/svg">
<g id="fluent:person-28-filled">
<path id="Vector" d="M17.2949 12.6716C17.92 12.6716 18.5196 12.92 18.9616 13.362C19.4037 13.8041 19.652 14.4036 19.652 15.0288V15.5906C19.652 18.4011 16.3442 20.5288 11.7949 20.5288C7.2456 20.5288 3.93774 18.5118 3.93774 15.5906V15.0288C3.93774 14.4036 4.18609 13.8041 4.62814 13.362C5.07019 12.92 5.66973 12.6716 6.29489 12.6716H17.2949ZM11.7949 1.67163C12.414 1.67163 13.027 1.79357 13.599 2.03048C14.1709 2.2674 14.6906 2.61465 15.1284 3.05241C15.5662 3.49018 15.9134 4.00987 16.1503 4.58184C16.3872 5.1538 16.5092 5.76683 16.5092 6.38592C16.5092 7.00501 16.3872 7.61803 16.1503 8.19C15.9134 8.76196 15.5662 9.28166 15.1284 9.71942C14.6906 10.1572 14.1709 10.5044 13.599 10.7413C13.027 10.9783 12.414 11.1002 11.7949 11.1002C10.5446 11.1002 9.34548 10.6035 8.46138 9.71942C7.57728 8.83532 7.0806 7.63622 7.0806 6.38592C7.0806 5.13561 7.57728 3.93651 8.46138 3.05241C9.34548 2.16831 10.5446 1.67163 11.7949 1.67163Z" fill="#F3F3F3"/>
</g>
</svg>
