<svg width="30" height="30" viewBox="0 0 30 30" fill="none" xmlns="http://www.w3.org/2000/svg">
<g id="ae">
<path id="Vector" d="M5.68428 0.774902H24.6638C27.5413 0.774902 29.8678 3.10142 29.8678 5.97895V24.2238C29.8678 27.1013 27.5413 29.4278 24.6638 29.4278H5.68428C2.80674 29.4278 0.480225 27.1013 0.480225 24.2238V5.97895C0.480225 3.10142 2.80674 0.774902 5.68428 0.774902Z" fill="#00005B"/>
<path id="Vector_2" d="M12.2847 17.9174H7.72961L6.799 20.8071C6.77451 20.9174 6.67655 20.9908 6.56635 20.9786H4.26432C4.12963 20.9786 4.09289 20.9051 4.12963 20.7582L8.07246 9.45619C8.10919 9.33374 8.14593 9.22354 8.19491 9.0766C8.24389 8.81946 8.26838 8.55008 8.26838 8.28069C8.25613 8.21946 8.30511 8.15824 8.36634 8.146H8.40307H11.5377C11.6235 8.146 11.6847 8.18273 11.6969 8.24395L16.1663 20.7337C16.203 20.8684 16.1663 20.9296 16.0438 20.9296H13.4847C13.399 20.9418 13.3132 20.8806 13.2888 20.7949L12.2847 17.8561V17.9174ZM8.43981 15.4806H11.55C11.4765 15.2235 11.3786 14.9174 11.2684 14.599C11.1582 14.2684 11.048 13.9133 10.9378 13.546C10.8153 13.1664 10.7051 12.799 10.5827 12.4194C10.4602 12.0399 10.35 11.6848 10.252 11.3297C10.1541 10.9868 10.0684 10.6684 9.98265 10.3746H9.95816C9.84796 10.9011 9.71327 11.4276 9.54184 11.9541C9.35817 12.5419 9.1745 13.1541 8.97858 13.7664C8.8194 14.3909 8.62348 14.9664 8.43981 15.4806Z" fill="#9999FF"/>
<path id="Vector_3" d="M23.3782 16.8154H19.4966C19.5456 17.1949 19.668 17.5745 19.8762 17.9051C20.0966 18.2358 20.4027 18.4929 20.77 18.6398C21.2598 18.848 21.7986 18.9582 22.3374 18.946C22.7659 18.9337 23.1945 18.897 23.6108 18.8113C23.9904 18.7623 24.3578 18.6643 24.7006 18.5296C24.7619 18.4807 24.7986 18.5051 24.7986 18.6276V20.5011C24.7986 20.55 24.7863 20.599 24.7741 20.648C24.7496 20.6847 24.7251 20.7092 24.6884 20.7337C24.2966 20.9051 23.8925 21.0276 23.4639 21.101C22.8884 21.2113 22.3129 21.2602 21.7251 21.248C20.7945 21.248 20.0109 21.101 19.3741 20.8194C18.7741 20.5623 18.2476 20.1582 17.8313 19.6562C17.4394 19.1786 17.1578 18.6398 16.9864 18.0521C16.815 17.4766 16.7292 16.8766 16.7292 16.2643C16.7292 15.6031 16.8272 14.9541 17.0354 14.3174C17.2313 13.7052 17.5374 13.1419 17.9537 12.6399C18.3578 12.1501 18.8598 11.7582 19.4354 11.4766C20.0109 11.195 20.6966 11.097 21.4802 11.097C22.1292 11.0848 22.7782 11.2072 23.3782 11.4766C23.8802 11.697 24.321 12.0276 24.6639 12.4562C24.9823 12.8725 25.2394 13.3378 25.3986 13.8521C25.5578 14.3419 25.6312 14.8439 25.6312 15.346C25.6312 15.6399 25.619 15.897 25.6067 16.1296C25.5823 16.3623 25.57 16.5337 25.5578 16.6439C25.5455 16.7296 25.4721 16.8031 25.3863 16.8031C25.3129 16.8031 25.1782 16.8154 24.9823 16.8276C24.7863 16.8521 24.5537 16.8643 24.2721 16.8643C23.9904 16.8643 23.6966 16.8154 23.3782 16.8154ZM19.4966 15.0276H22.0802C22.3986 15.0276 22.6313 15.0276 22.7782 15.0154C22.8762 15.0031 22.9741 14.9786 23.0598 14.9174V14.795C23.0598 14.6358 23.0353 14.4888 22.9864 14.3419C22.7659 13.6562 22.117 13.1909 21.3945 13.2154C20.7211 13.1786 20.0843 13.5337 19.766 14.146C19.619 14.4276 19.5333 14.7215 19.4966 15.0276Z" fill="#9999FF"/>
</g>
</svg>
