<svg width="31" height="30" viewBox="0 0 31 30" fill="none" xmlns="http://www.w3.org/2000/svg">
<g id="ai">
<path id="Vector" d="M5.90913 0.456055H24.8886C27.7661 0.456055 30.0927 2.78257 30.0927 5.66011V23.9049C30.0927 26.7824 27.7661 29.109 24.8886 29.109H5.90913C3.0316 29.109 0.705078 26.7824 0.705078 23.9049V5.66011C0.705078 2.78257 3.0316 0.456055 5.90913 0.456055Z" fill="#330000"/>
<path id="Vector_2" d="M14.9443 17.6476H10.3893L9.45867 20.5251C9.43418 20.6354 9.33622 20.7088 9.22601 20.6966H6.92399C6.78929 20.6966 6.75256 20.6231 6.78929 20.4762L10.7321 9.12521C10.7689 9.00277 10.8056 8.86807 10.8546 8.72113C10.9036 8.46399 10.928 8.19461 10.928 7.92522C10.9158 7.864 10.9648 7.80277 11.026 7.79053C11.0382 7.79053 11.0505 7.79053 11.0627 7.79053H14.1974C14.2954 7.79053 14.3444 7.82726 14.3566 7.88849L18.826 20.5007C18.8627 20.6354 18.826 20.6966 18.7035 20.6966H16.1443C16.0586 20.7088 15.9729 20.6476 15.9484 20.5619L14.9443 17.6476ZM11.0995 15.1619H14.2097C14.1362 14.9048 14.0382 14.5987 13.928 14.2803C13.8178 13.9497 13.7076 13.5946 13.5974 13.2272C13.475 12.8476 13.3648 12.4803 13.2423 12.1007C13.1199 11.7211 13.0097 11.366 12.9117 11.0109C12.8137 10.6681 12.728 10.3497 12.6423 10.0558H12.6178C12.5076 10.5823 12.3729 11.1089 12.2015 11.6354C12.0178 12.2232 11.8342 12.8354 11.6382 13.4476C11.4668 14.0721 11.2831 14.6476 11.0995 15.1619Z" fill="#FF9A00"/>
<path id="Vector_3" d="M21.4956 9.884C21.0915 9.89624 20.6997 9.73706 20.4058 9.45543C20.1242 9.14931 19.9772 8.74523 19.9895 8.32891C19.9772 7.91258 20.1364 7.52075 20.4303 7.23912C20.7242 6.95748 21.116 6.81055 21.5201 6.81055C21.9976 6.81055 22.365 6.95748 22.6344 7.23912C22.9037 7.53299 23.0507 7.92483 23.0384 8.32891C23.0507 8.74523 22.9037 9.14931 22.6099 9.45543C22.3282 9.74931 21.9119 9.90849 21.4956 9.884ZM20.1242 20.5125V11.084C20.1242 10.9615 20.1731 10.9126 20.2834 10.9126H22.7078C22.818 10.9126 22.867 10.9738 22.867 11.084V20.5125C22.867 20.6472 22.818 20.7084 22.7078 20.7084H20.3078C20.1854 20.7084 20.1242 20.635 20.1242 20.5125Z" fill="#FF9A00"/>
</g>
</svg>
