<svg width="30" height="25" viewBox="0 0 30 25" fill="none" xmlns="http://www.w3.org/2000/svg">
<g id="airtable">
<path id="Vector" d="M13.2139 0.660968L2.25731 5.19459C1.64802 5.44675 1.65433 6.31234 2.26744 6.55536L13.2697 10.9184C14.2364 11.3018 15.3129 11.3018 16.2796 10.9184L27.282 6.5552C27.895 6.31234 27.9016 5.44691 27.292 5.19476L16.3357 0.660802C15.3362 0.247181 14.2133 0.247181 13.2137 0.660802" fill="#FCB400"/>
<path id="Vector_2" d="M15.751 13.3009V24.2005C15.751 24.7188 16.2737 25.0739 16.7556 24.8829L29.0155 20.1242C29.1522 20.07 29.2695 19.976 29.3521 19.8543C29.4348 19.7326 29.479 19.5889 29.4789 19.4418V8.54238C29.4789 8.02395 28.9562 7.66898 28.4743 7.86L16.2144 12.6187C16.0777 12.6729 15.9604 12.767 15.8778 12.8887C15.7952 13.0103 15.751 13.154 15.751 13.3011" fill="#18BFFF"/>
<path id="Vector_3" d="M12.8895 13.8632L9.25105 15.6199L8.88162 15.7985L1.20106 19.4786C0.714355 19.7135 0.0927734 19.3587 0.0927734 18.8179V8.58785C0.0927734 8.39217 0.193104 8.22324 0.327652 8.09617C0.38285 8.0412 0.445472 7.99423 0.513695 7.95663C0.69708 7.8465 0.958868 7.8171 1.18145 7.90514L12.8284 12.52C13.4204 12.7549 13.4669 13.5844 12.8895 13.8633" fill="#F82B60"/>
<path id="Vector_4" d="M12.8888 13.8632L9.2503 15.6199L0.326904 8.096C0.382113 8.04109 0.444735 7.99418 0.512947 7.95663C0.696332 7.8465 0.95812 7.8171 1.18071 7.90514L12.8276 12.52C13.4197 12.7549 13.4662 13.5844 12.8888 13.8633" fill="black" fill-opacity="0.25"/>
</g>
</svg>
