<svg width="29" height="43" viewBox="0 0 29 43" fill="none" xmlns="http://www.w3.org/2000/svg">
<g id="SVG">
<g id="Clip path group">
<mask id="mask0_1_7643" style="mask-type:luminance" maskUnits="userSpaceOnUse" x="0" y="7" width="29" height="29">
<g id="clip0_2547_14088">
<path id="Vector" d="M28.635 7.38135H0.437744V35.5756H28.635V7.38135Z" fill="white"/>
</g>
</mask>
<g mask="url(#mask0_1_7643)">
<g id="Group">
<path id="Vector_2" d="M11.8175 20.5332C11.8175 20.5332 14.4858 20.3349 14.4858 17.2061C14.4858 14.0772 12.3027 12.5503 9.53731 12.5503H4.44722H4.29768H0.437744V30.0358H4.29768H4.44722H9.53731C9.53731 30.0358 15.0923 30.2109 15.0923 24.8748C15.0923 24.8748 15.3348 20.5332 11.8175 20.5332ZM4.44722 15.658H8.88231H9.53731C9.53731 15.658 10.7744 15.658 10.7744 17.477C10.7744 19.2962 10.0467 19.56 9.22195 19.56H4.44722V15.658ZM9.30273 26.9281H4.44722V22.2553H9.53731C9.53731 22.2553 11.3809 22.2311 11.3809 24.6565C11.3809 26.6788 10.0324 26.9078 9.30273 26.9281Z" fill="white" fill-opacity="0.95"/>
<path id="Vector_3" d="M22.5011 16.999C15.7763 16.999 15.7824 23.7171 15.7824 23.7171C15.7824 23.7171 15.3209 30.4012 22.5013 30.4012C22.5013 30.4012 28.4851 30.743 28.4851 25.7514H25.4077C25.4077 25.7514 25.5102 27.6316 22.6038 27.6316C22.6038 27.6316 19.5264 27.8374 19.5264 24.5891H28.5877C28.5877 24.5891 29.579 16.999 22.5011 16.999ZM25.2365 22.2553H19.4921C19.4921 22.2553 19.8682 19.56 22.5695 19.56C25.2709 19.56 25.2365 22.2553 25.2365 22.2553Z" fill="white" fill-opacity="0.95"/>
<path id="Vector_4" d="M25.9529 13.5801H18.739V15.7338H25.9529V13.5801Z" fill="white" fill-opacity="0.95"/>
</g>
</g>
</g>
</g>
</svg>
