<svg width="31" height="31" viewBox="0 0 31 31" fill="none" xmlns="http://www.w3.org/2000/svg">
<g id="canva">
<path id="Vector" d="M15.3991 30.162C23.5143 30.162 30.0929 23.5834 30.0929 15.4682C30.0929 7.35305 23.5143 0.774414 15.3991 0.774414C7.28396 0.774414 0.705322 7.35305 0.705322 15.4682C0.705322 23.5834 7.28396 30.162 15.3991 30.162Z" fill="#7D2AE7"/>
<path id="Vector_2" d="M15.3991 30.162C23.5143 30.162 30.0929 23.5834 30.0929 15.4682C30.0929 7.35305 23.5143 0.774414 15.3991 0.774414C7.28396 0.774414 0.705322 7.35305 0.705322 15.4682C0.705322 23.5834 7.28396 30.162 15.3991 30.162Z" fill="url(#paint0_radial_1_7600)"/>
<path id="Vector_3" d="M15.3991 30.162C23.5143 30.162 30.0929 23.5834 30.0929 15.4682C30.0929 7.35305 23.5143 0.774414 15.3991 0.774414C7.28396 0.774414 0.705322 7.35305 0.705322 15.4682C0.705322 23.5834 7.28396 30.162 15.3991 30.162Z" fill="url(#paint1_radial_1_7600)"/>
<path id="Vector_4" d="M15.3991 30.162C23.5143 30.162 30.0929 23.5834 30.0929 15.4682C30.0929 7.35305 23.5143 0.774414 15.3991 0.774414C7.28396 0.774414 0.705322 7.35305 0.705322 15.4682C0.705322 23.5834 7.28396 30.162 15.3991 30.162Z" fill="url(#paint2_radial_1_7600)"/>
<path id="Vector_5" d="M15.3991 30.162C23.5143 30.162 30.0929 23.5834 30.0929 15.4682C30.0929 7.35305 23.5143 0.774414 15.3991 0.774414C7.28396 0.774414 0.705322 7.35305 0.705322 15.4682C0.705322 23.5834 7.28396 30.162 15.3991 30.162Z" fill="url(#paint3_radial_1_7600)"/>
<path id="Vector_6" d="M21.742 18.4828C21.6207 18.4828 21.514 18.5852 21.4029 18.8089C20.1488 21.3518 17.9828 23.1511 15.4763 23.1511C12.5781 23.1511 10.7833 20.5348 10.7833 16.9205C10.7833 10.7981 14.1945 7.2582 17.1908 7.2582C18.5908 7.2582 19.4459 8.13804 19.4459 9.53821C19.4459 11.2 18.5018 12.0798 18.5018 12.6659C18.5018 12.929 18.6654 13.0883 18.9899 13.0883C20.2936 13.0883 21.8238 11.5902 21.8238 9.4739C21.8238 7.42188 20.0378 5.91357 17.0417 5.91357C12.0899 5.91357 7.68921 10.5043 7.68921 16.8561C7.68921 21.7728 10.4968 25.0219 14.8289 25.0219C19.4268 25.0219 22.0855 20.4471 22.0855 18.9623C22.0855 18.6335 21.9174 18.4828 21.742 18.4828Z" fill="white"/>
</g>
<defs>
<radialGradient id="paint0_radial_1_7600" cx="0" cy="0" r="1" gradientUnits="userSpaceOnUse" gradientTransform="translate(6.3819 26.8213) rotate(-49.416) scale(22.7288)">
<stop stop-color="#6420FF"/>
<stop offset="1" stop-color="#6420FF" stop-opacity="0"/>
</radialGradient>
<radialGradient id="paint1_radial_1_7600" cx="0" cy="0" r="1" gradientUnits="userSpaceOnUse" gradientTransform="translate(8.48525 4.11526) rotate(54.703) scale(25.6309)">
<stop stop-color="#00C4CC"/>
<stop offset="1" stop-color="#00C4CC" stop-opacity="0"/>
</radialGradient>
<radialGradient id="paint2_radial_1_7600" cx="0" cy="0" r="1" gradientUnits="userSpaceOnUse" gradientTransform="translate(6.38177 26.8211) rotate(-45.1954) scale(22.4537 10.3267)">
<stop stop-color="#6420FF"/>
<stop offset="1" stop-color="#6420FF" stop-opacity="0"/>
</radialGradient>
<radialGradient id="paint3_radial_1_7600" cx="0" cy="0" r="1" gradientUnits="userSpaceOnUse" gradientTransform="translate(12.7233 4.73401) rotate(66.5198) scale(23.1367 38.7591)">
<stop stop-color="#00C4CC" stop-opacity="0.725916"/>
<stop offset="0.0001" stop-color="#00C4CC"/>
<stop offset="1" stop-color="#00C4CC" stop-opacity="0"/>
</radialGradient>
</defs>
</svg>
