<svg width="25" height="25" viewBox="0 0 25 25" fill="none" xmlns="http://www.w3.org/2000/svg">
<g id="ic:round-email">
<path id="Vector" d="M20.8052 4.79004H4.80518C3.70518 4.79004 2.81518 5.69004 2.81518 6.79004L2.80518 18.79C2.80518 19.89 3.70518 20.79 4.80518 20.79H20.8052C21.9052 20.79 22.8052 19.89 22.8052 18.79V6.79004C22.8052 5.69004 21.9052 4.79004 20.8052 4.79004ZM20.4052 9.04004L13.3352 13.46C13.0152 13.66 12.5952 13.66 12.2752 13.46L5.20518 9.04004C5.1049 8.98375 5.01709 8.9077 4.94706 8.81649C4.87703 8.72529 4.82624 8.62082 4.79775 8.50941C4.76926 8.398 4.76368 8.28197 4.78133 8.16835C4.79899 8.05472 4.83951 7.94585 4.90046 7.84834C4.9614 7.75083 5.0415 7.66669 5.1359 7.60103C5.2303 7.53537 5.33705 7.48955 5.44967 7.46634C5.5623 7.44313 5.67846 7.44301 5.79113 7.46599C5.9038 7.48897 6.01064 7.53457 6.10518 7.60004L12.8052 11.79L19.5052 7.60004C19.5997 7.53457 19.7066 7.48897 19.8192 7.46599C19.9319 7.44301 20.0481 7.44313 20.1607 7.46634C20.2733 7.48955 20.38 7.53537 20.4744 7.60103C20.5689 7.66669 20.6489 7.75083 20.7099 7.84834C20.7708 7.94585 20.8114 8.05472 20.829 8.16835C20.8467 8.28197 20.8411 8.398 20.8126 8.50941C20.7841 8.62082 20.7333 8.72529 20.6633 8.81649C20.5933 8.9077 20.5054 8.98375 20.4052 9.04004Z" fill="#E1E1E1"/>
</g>
</svg>
