<svg width="24" height="24" viewBox="0 0 24 24" fill="none" xmlns="http://www.w3.org/2000/svg">
<g id="material-symbols-light:work-update-sharp">
<path id="Vector" d="M18 20.596L20.539 18.058L19.992 17.512L18.384 19.119V15.404H17.615V19.119L16.008 17.512L15.461 18.058L18 20.596ZM10 7H14V5H10V7ZM18 22C16.886 22 15.941 21.612 15.165 20.836C14.3883 20.0587 14 19.1133 14 18C14 16.8867 14.3883 15.9417 15.165 15.165C15.9417 14.3883 16.8867 14 18 14C19.1133 14 20.0587 14.3883 20.836 15.165C21.6133 15.9417 22.0013 16.8867 22 18C21.9987 19.1133 21.6107 20.0587 20.836 20.836C20.0613 21.6133 19.116 22.0013 18 22ZM3 20V7H9V4H15V7H21V12.814C20.5447 12.538 20.062 12.3333 19.552 12.2C19.042 12.0667 18.5247 12 18 12C16.336 12 14.92 12.584 13.752 13.752C12.584 14.92 12 16.336 12 18C12 18.3373 12.0287 18.6737 12.086 19.009C12.1433 19.3443 12.2307 19.6747 12.348 20H3Z" fill="black"/>
</g>
</svg>
