<svg width="31" height="30" viewBox="0 0 31 30" fill="none" xmlns="http://www.w3.org/2000/svg">
<g id="figma">
<path id="Vector" d="M10.5012 29.3872C13.2049 29.3872 15.3991 27.1929 15.3991 24.4892V19.5913H10.5012C7.79755 19.5913 5.60327 21.7856 5.60327 24.4892C5.60327 27.1929 7.79755 29.3872 10.5012 29.3872Z" fill="#0ACF83"/>
<path id="Vector_2" d="M5.60327 14.6933C5.60327 11.9897 7.79755 9.79541 10.5012 9.79541H15.3991V19.5913H10.5012C7.79755 19.5913 5.60327 17.397 5.60327 14.6933Z" fill="#A259FF"/>
<path id="Vector_3" d="M5.60327 4.89793C5.60327 2.19427 7.79755 0 10.5012 0H15.3991V9.79586H10.5012C7.79755 9.79586 5.60327 7.60159 5.60327 4.89793Z" fill="#F24E1E"/>
<path id="Vector_4" d="M15.3994 0H20.2974C23.001 0 25.1953 2.19427 25.1953 4.89793C25.1953 7.60159 23.001 9.79586 20.2974 9.79586H15.3994V0Z" fill="#FF7262"/>
<path id="Vector_5" d="M25.1953 14.6933C25.1953 17.397 23.001 19.5913 20.2974 19.5913C17.5937 19.5913 15.3994 17.397 15.3994 14.6933C15.3994 11.9897 17.5937 9.79541 20.2974 9.79541C23.001 9.79541 25.1953 11.9897 25.1953 14.6933Z" fill="#1ABCFE"/>
</g>
</svg>
