<svg width="22" height="22" viewBox="0 0 22 22" fill="none" xmlns="http://www.w3.org/2000/svg">
<g id="Button &#226;&#134;&#146; SVG">
<path id="Vector" d="M14.0302 19.4177L18.9103 4.67326C19.2067 3.77777 18.382 2.95305 17.4865 3.24944L2.74201 8.1296C1.9124 8.40419 1.64029 9.45144 2.24216 10.0533C2.7303 10.5414 5.97616 11.5002 7.18535 11.8451C7.46903 11.9259 7.76988 11.8632 8.00348 11.683C9.2633 10.7116 12.6301 8.27582 14.8984 6.64265C15.312 6.34479 15.8187 6.85182 15.5206 7.26529C13.8861 9.53228 11.4484 12.8971 10.4768 14.1563C10.2966 14.3899 10.2339 14.6908 10.3147 14.9744C10.6596 16.1836 11.6184 19.4294 12.1065 19.9176C12.7083 20.5195 13.7556 20.2473 14.0302 19.4177Z" fill="white" fill-opacity="0.9025"/>
</g>
</svg>
