<svg width="24" height="23" viewBox="0 0 24 23" fill="none" xmlns="http://www.w3.org/2000/svg">
<g id="ooui:image-gallery">
<path id="Vector" d="M3.59995 5.89985C2.96343 5.89985 2.35298 6.13164 1.90289 6.54422C1.45281 6.9568 1.19995 7.51638 1.19995 8.09985V19.0999C1.19995 19.6833 1.45281 20.2429 1.90289 20.6555C2.35298 21.0681 2.96343 21.2999 3.59995 21.2999H20.4C21.0365 21.2999 21.6469 21.0681 22.097 20.6555C22.5471 20.2429 22.7999 19.6833 22.7999 19.0999V8.09985C22.7999 7.51638 22.5471 6.9568 22.097 6.54422C21.6469 6.13164 21.0365 5.89985 20.4 5.89985H3.59995ZM3.59995 17.9999L7.79995 13.0499L10.8 16.3499L15 11.3999L20.4 17.9999H3.59995ZM19.1999 2.59985C19.8365 2.59985 20.4469 2.83164 20.897 3.24422C21.3471 3.6568 21.6 4.21638 21.6 4.79985H2.39995C2.39995 4.21638 2.65281 3.6568 3.10289 3.24422C3.55298 2.83164 4.16343 2.59985 4.79995 2.59985H19.1999Z" fill="#F3F3F3"/>
</g>
</svg>
