<svg width="29" height="43" viewBox="0 0 29 43" fill="none" xmlns="http://www.w3.org/2000/svg">
<g id="SVG">
<g id="Clip path group">
<mask id="mask0_1_7652" style="mask-type:luminance" maskUnits="userSpaceOnUse" x="0" y="7" width="29" height="29">
<g id="clip0_2547_14089">
<path id="Vector" d="M28.2922 7.38135H0.0949707V35.5756H28.2922V7.38135Z" fill="white"/>
</g>
</mask>
<g mask="url(#mask0_1_7652)">
<g id="Group">
<path id="Vector_2" fill-rule="evenodd" clip-rule="evenodd" d="M14.1916 7.38135C6.40723 7.38135 0.0942383 13.8525 0.0942383 21.8357C0.0942383 28.2216 4.13354 33.6387 9.73594 35.55C10.4413 35.6831 10.6984 35.2368 10.6984 34.8534C10.6984 34.5101 10.6863 33.6014 10.6793 32.3955C6.75776 33.2687 5.93034 30.4576 5.93034 30.4576C5.28899 28.7878 4.36464 28.3432 4.36464 28.3432C3.08456 27.447 4.46157 27.4648 4.46157 27.4648C5.87667 27.5669 6.62101 28.9546 6.62101 28.9546C7.87861 31.1631 9.92115 30.5251 10.7244 30.1551C10.8525 29.2216 11.2168 28.5845 11.6193 28.2234C8.48876 27.8587 5.19725 26.6183 5.19725 21.0797C5.19725 19.502 5.74685 18.211 6.6487 17.2012C6.5033 16.8357 6.01948 15.3654 6.78718 13.376C6.78718 13.376 7.97029 12.9874 10.6638 14.8578C11.7881 14.5367 12.9946 14.3769 14.1933 14.3707C15.3912 14.3769 16.5968 14.5367 17.7229 14.8578C20.4146 12.9874 21.596 13.376 21.596 13.376C22.3654 15.3654 21.8816 16.8357 21.737 17.2012C22.6406 18.211 23.1859 19.502 23.1859 21.0797C23.1859 26.6325 19.8892 27.8543 16.7492 28.2119C17.2546 28.6582 17.7055 29.5402 17.7055 30.888C17.7055 32.8206 17.6882 34.3796 17.6882 34.8534C17.6882 35.2403 17.9426 35.6902 18.6576 35.5491C24.2557 33.6334 28.2915 28.2199 28.2915 21.8357C28.2915 13.8525 21.9785 7.38135 14.1916 7.38135Z" fill="white" fill-opacity="0.95"/>
</g>
</g>
</g>
</g>
</svg>
