<svg width="23" height="23" viewBox="0 0 23 23" fill="none" xmlns="http://www.w3.org/2000/svg">
<g id="iconamoon:home-fill">
<path id="Vector" fill-rule="evenodd" clip-rule="evenodd" d="M12.358 2.19758C12.1861 2.01792 11.953 1.91699 11.7099 1.91699C11.4668 1.91699 11.2337 2.01792 11.0618 2.19758L4.64516 8.90591L2.81183 10.8226C2.72428 10.911 2.65445 11.0167 2.6064 11.1336C2.55836 11.2506 2.53307 11.3763 2.53202 11.5036C2.53096 11.6308 2.55415 11.757 2.60024 11.8748C2.64633 11.9926 2.7144 12.0996 2.80047 12.1895C2.88654 12.2795 2.98888 12.3507 3.10154 12.3989C3.21419 12.4471 3.3349 12.4713 3.45661 12.4702C3.57833 12.4691 3.69861 12.4427 3.81045 12.3924C3.92229 12.3422 4.02344 12.2692 4.108 12.1777L4.37658 11.8969V18.2085C4.37658 18.971 4.66631 19.7022 5.18204 20.2414C5.69776 20.7806 6.39723 21.0835 7.12658 21.0835H16.2932C17.0226 21.0835 17.7221 20.7806 18.2378 20.2414C18.7535 19.7022 19.0432 18.971 19.0432 18.2085V11.8969L19.3118 12.1777C19.4847 12.3522 19.7163 12.4488 19.9566 12.4466C20.197 12.4445 20.4269 12.3437 20.5968 12.166C20.7668 11.9883 20.8632 11.7479 20.8653 11.4967C20.8674 11.2454 20.775 11.0033 20.608 10.8226L12.358 2.19758Z" fill="white"/>
</g>
</svg>
