<svg width="29" height="43" viewBox="0 0 29 43" fill="none" xmlns="http://www.w3.org/2000/svg">
<g id="SVG">
<path id="Vector" d="M14.1943 10.6436C17.7233 10.6436 18.1414 10.6568 19.535 10.7204C21.0393 10.789 22.4354 11.0904 23.5093 12.1642C24.5832 13.2381 24.8847 14.634 24.9533 16.1381C25.0169 17.5316 25.0301 17.9496 25.0301 21.4782C25.0301 25.007 25.0169 25.4249 24.9533 26.8184C24.8847 28.3225 24.5832 29.7185 23.5093 30.7923C22.4354 31.866 21.0393 32.1676 19.535 32.2362C18.1414 32.2997 17.7233 32.3129 14.1943 32.3129C10.6652 32.3129 10.2472 32.2997 8.85363 32.2362C7.34931 32.1676 5.95319 31.866 4.87927 30.7923C3.80534 29.7185 3.50382 28.3225 3.43526 26.8184C3.37165 25.4249 3.35843 25.007 3.35843 21.4782C3.35843 17.9496 3.37165 17.5316 3.43526 16.1381C3.50382 14.634 3.80534 13.2381 4.87927 12.1642C5.95319 11.0904 7.34931 10.789 8.85363 10.7204C10.2472 10.6568 10.6652 10.6436 14.1943 10.6436ZM14.1943 8.26221C10.6049 8.26221 10.1547 8.27708 8.74453 8.34151C6.59672 8.4398 4.70992 8.96596 3.19487 10.48C1.68064 11.9941 1.15442 13.8807 1.05611 16.0291C0.99168 17.4391 0.976807 17.8893 0.976807 21.4782C0.976807 25.0672 0.99168 25.5174 1.05611 26.9274C1.15442 29.075 1.68064 30.9616 3.19487 32.4765C4.7091 33.9906 6.59589 34.5167 8.74453 34.615C10.1547 34.6794 10.6049 34.6943 14.1943 34.6943C17.7836 34.6943 18.2339 34.6794 19.644 34.615C21.7918 34.5167 23.6786 33.9906 25.1937 32.4765C26.7079 30.9624 27.2341 29.0758 27.3325 26.9274C27.3969 25.5174 27.4117 25.0672 27.4117 21.4782C27.4117 17.8893 27.3969 17.4391 27.3325 16.0291C27.2341 13.8815 26.7079 11.9949 25.1937 10.48C23.6795 8.96596 21.7926 8.4398 19.644 8.34151C18.2339 8.27708 17.7836 8.26221 14.1943 8.26221Z" fill="white" fill-opacity="0.95"/>
<path id="Vector_2" d="M14.1379 14.3018C10.0821 14.3018 6.79492 17.5895 6.79492 21.644C6.79492 25.6994 10.083 28.9863 14.1379 28.9863C18.1929 28.9863 21.481 25.6985 21.481 21.644C21.481 17.5886 18.1938 14.3018 14.1379 14.3018ZM14.1379 26.4098C11.505 26.4098 9.37161 24.2758 9.37161 21.644C9.37161 19.0113 11.5059 16.8781 14.1379 16.8781C16.7709 16.8781 18.9043 19.0122 18.9043 21.644C18.9043 24.2767 16.7709 26.4098 14.1379 26.4098Z" fill="white" fill-opacity="0.95"/>
<path id="Vector_3" d="M21.2808 16.0685C22.173 16.0685 22.8961 15.3453 22.8961 14.4532C22.8961 13.5611 22.173 12.8379 21.2808 12.8379C20.3887 12.8379 19.6655 13.5611 19.6655 14.4532C19.6655 15.3453 20.3887 16.0685 21.2808 16.0685Z" fill="white" fill-opacity="0.95"/>
</g>
</svg>
