<svg width="29" height="41" viewBox="0 0 29 41" fill="none" xmlns="http://www.w3.org/2000/svg">
<g id="SVG">
<path id="Vector" fill-rule="evenodd" clip-rule="evenodd" d="M7.47044 6.73242C3.59097 6.73242 0.446045 9.87701 0.446045 13.7561V27.8033C0.446045 31.6823 3.59097 34.827 7.47044 34.827H21.5192C25.3986 34.827 28.5436 31.6823 28.5436 27.8033V13.7561C28.5436 9.87701 25.3986 6.73242 21.5192 6.73242H7.47044ZM7.24846 28.6105H10.5387V17.9995H7.24846V28.6105ZM7.01676 14.6632C7.01676 15.729 7.85088 16.5631 8.91676 16.5631C9.98264 16.5631 10.8168 15.6826 10.8168 14.6632C10.8168 13.5975 9.98264 12.7635 8.91676 12.7635C7.85088 12.7635 7.01676 13.5975 7.01676 14.6632ZM19.6216 28.6105H22.8655V22.7722C22.8655 19.8993 22.2631 17.7215 18.9265 17.7215C17.3509 17.7215 16.2387 18.6019 15.8217 19.4359H15.7753V17.9995H12.6241V28.6105H15.9143V23.3745C15.9143 21.9845 16.1923 20.6407 17.907 20.6407C19.6216 20.6407 19.6216 22.2161 19.6216 23.4672V28.6105Z" fill="white" fill-opacity="0.95"/>
</g>
</svg>
