<svg width="30" height="30" viewBox="0 0 30 30" fill="none" xmlns="http://www.w3.org/2000/svg">
<g id="miro">
<path id="Vector" d="M6.84652 -0.000976562H23.5015C27.0152 -0.000976562 29.8678 2.85168 29.8678 6.36532V23.0203C29.8678 26.534 27.0152 29.3866 23.5015 29.3866H6.84652C3.33288 29.3866 0.480225 26.534 0.480225 23.0203V6.36532C0.480225 2.85168 3.33288 -0.000976562 6.84652 -0.000976562Z" fill="#FFD02F"/>
<path id="Vector_2" d="M20.9012 3.66943H17.6746L20.362 8.39197L14.448 3.66943H11.2213L14.1784 9.44432L7.9947 3.66943H4.76807L7.9947 11.0185L4.76807 25.7166H7.9947L14.1784 9.96615L11.2213 25.7166H14.448L20.362 8.9225L17.6746 25.7166H20.9012L26.8153 7.33962L20.9012 3.66943Z" fill="#050038"/>
</g>
</svg>
