<svg width="30" height="30" viewBox="0 0 30 30" fill="none" xmlns="http://www.w3.org/2000/svg">
<g id="openai">
<path id="Vector" d="M27.8269 12.4178C28.1943 11.4076 28.2861 10.3974 28.1943 9.38716C28.1024 8.37696 27.7351 7.36676 27.2759 6.4484C26.4494 5.07085 25.2555 3.96882 23.878 3.32597C22.4086 2.68311 20.8474 2.49944 19.2862 2.86678C18.5515 2.13209 17.725 1.48924 16.8066 1.03006C15.8882 0.570879 14.7862 0.387207 13.776 0.387207C12.2148 0.387207 10.6536 0.846388 9.36786 1.76475C8.08215 2.68311 7.16379 3.96882 6.70461 5.4382C5.60258 5.71371 4.68421 6.17289 3.76585 6.72391C2.93933 7.36676 2.29647 8.19328 1.74546 9.01981C0.91893 10.3974 0.643421 11.9586 0.827093 13.5198C1.01077 15.081 1.65362 16.5504 2.66382 17.7442C2.29647 18.7544 2.20464 19.7646 2.29647 20.7748C2.38831 21.785 2.75565 22.7952 3.21483 23.7136C4.04136 25.0911 5.23523 26.1932 6.61277 26.836C8.08215 27.4789 9.64337 27.6626 11.2046 27.2952C11.9393 28.0299 12.7658 28.6728 13.6842 29.1319C14.6025 29.5911 15.7046 29.7748 16.7148 29.7748C18.276 29.7748 19.8372 29.3156 21.1229 28.3973C22.4086 27.4789 23.327 26.1932 23.7861 24.7238C24.7963 24.5401 25.8065 24.0809 26.6331 23.4381C27.4596 22.7952 28.1943 22.0606 28.6535 21.1422C29.48 19.7646 29.7555 18.2034 29.5718 16.6422C29.3882 15.081 28.8371 13.6116 27.8269 12.4178ZM16.8066 27.8462C15.3372 27.8462 14.2352 27.3871 13.225 26.5605C13.225 26.5605 13.3168 26.4687 13.4087 26.4687L19.2862 23.0708C19.4698 22.9789 19.5617 22.8871 19.6535 22.7034C19.7454 22.5197 19.7454 22.4279 19.7454 22.2442V13.979L22.2249 15.4483V22.2442C22.3168 25.4585 19.7454 27.8462 16.8066 27.8462ZM4.95972 22.7952C4.31687 21.6932 4.04136 20.4075 4.31687 19.1218C4.31687 19.1218 4.40871 19.2136 4.50054 19.2136L10.3781 22.6116C10.5617 22.7034 10.6536 22.7034 10.8372 22.7034C11.0209 22.7034 11.2046 22.7034 11.2964 22.6116L18.4596 18.4789V21.3259L12.4903 24.8156C11.2046 25.5503 9.7352 25.734 8.35766 25.3667C6.88828 24.9993 5.69441 24.0809 4.95972 22.7952ZM3.39851 10.03C4.04136 8.92797 5.05156 8.10145 6.24543 7.64227V7.82594V14.6218C6.24543 14.8055 6.24543 14.9892 6.33727 15.081C6.4291 15.2647 6.52094 15.3565 6.70461 15.4483L13.8678 19.581L11.3883 21.0504L5.51074 17.6524C4.22503 16.9177 3.30667 15.7239 2.93933 14.3463C2.57198 12.9688 2.66382 11.3157 3.39851 10.03ZM23.6943 14.7137L16.5311 10.581L19.0107 9.11165L24.8882 12.5096C25.8065 13.0606 26.5412 13.7953 27.0004 14.7137C27.4596 15.632 27.7351 16.6422 27.6433 17.7442C27.5514 18.7544 27.1841 19.7646 26.5412 20.5912C25.8984 21.4177 25.0719 22.0606 24.0617 22.4279V15.4483C24.0617 15.2647 24.0617 15.081 23.9698 14.9892C23.9698 14.9892 23.878 14.8055 23.6943 14.7137ZM26.1739 11.0402C26.1739 11.0402 26.0821 10.9484 25.9902 10.9484L20.1127 7.55043C19.929 7.4586 19.8372 7.45859 19.6535 7.45859C19.4698 7.45859 19.2862 7.4586 19.1943 7.55043L12.0311 11.6831V8.83614L18.0005 5.34636C18.9188 4.79535 19.929 4.61167 21.0311 4.61167C22.0413 4.61167 23.0515 4.97902 23.9698 5.62187C24.7963 6.26472 25.531 7.09125 25.8984 8.00961C26.2657 8.92797 26.3576 10.03 26.1739 11.0402ZM10.7454 16.183L8.26583 14.7137V7.82594C8.26583 6.81574 8.54133 5.71371 9.09235 4.88718C9.64337 3.96882 10.4699 3.32597 11.3883 2.86678C12.3066 2.4076 13.4087 2.22393 14.4189 2.4076C15.429 2.49944 16.4392 2.95862 17.2658 3.60147C17.2658 3.60147 17.1739 3.69331 17.0821 3.69331L11.2046 7.09125C11.0209 7.18309 10.9291 7.27492 10.8372 7.45859C10.7454 7.64227 10.7454 7.7341 10.7454 7.91778V16.183ZM12.0311 13.2443L15.2454 11.4076L18.4596 13.2443V16.9177L15.2454 18.7544L12.0311 16.9177V13.2443Z" fill="white"/>
</g>
</svg>
