<svg width="23" height="23" viewBox="0 0 23 23" fill="none" xmlns="http://www.w3.org/2000/svg">
<g id="si:projects-alt-fill">
<path id="Vector" fill-rule="evenodd" clip-rule="evenodd" d="M5.74496 2.5332H17.845C18.6716 2.5332 19.4643 2.86157 20.0488 3.44605C20.6333 4.03054 20.9616 4.82328 20.9616 5.64987V17.7499C20.9616 18.5765 20.6333 19.3692 20.0488 19.9537C19.4643 20.5382 18.6716 20.8665 17.845 20.8665H5.74496C4.91837 20.8665 4.12563 20.5382 3.54115 19.9537C2.95666 19.3692 2.6283 18.5765 2.6283 17.7499V5.64987C2.6283 4.82328 2.95666 4.03054 3.54115 3.44605C4.12563 2.86157 4.91837 2.5332 5.74496 2.5332ZM7.21163 5.2832C7.45474 5.2832 7.6879 5.37978 7.85981 5.55169C8.03172 5.7236 8.1283 5.95675 8.1283 6.19987V13.5332C8.1283 13.7763 8.03172 14.0095 7.85981 14.1814C7.6879 14.3533 7.45474 14.4499 7.21163 14.4499C6.96851 14.4499 6.73536 14.3533 6.56345 14.1814C6.39154 14.0095 6.29496 13.7763 6.29496 13.5332V6.19987C6.29496 5.95675 6.39154 5.7236 6.56345 5.55169C6.73536 5.37978 6.96851 5.2832 7.21163 5.2832ZM11.795 5.2832C12.0381 5.2832 12.2712 5.37978 12.4431 5.55169C12.6151 5.7236 12.7116 5.95675 12.7116 6.19987V11.6999C12.7116 11.943 12.6151 12.1761 12.4431 12.3481C12.2712 12.52 12.0381 12.6165 11.795 12.6165C11.5518 12.6165 11.3187 12.52 11.1468 12.3481C10.9749 12.1761 10.8783 11.943 10.8783 11.6999V6.19987C10.8783 5.95675 10.9749 5.7236 11.1468 5.55169C11.3187 5.37978 11.5518 5.2832 11.795 5.2832ZM17.295 6.19987C17.295 5.95675 17.1984 5.7236 17.0265 5.55169C16.8546 5.37978 16.6214 5.2832 16.3783 5.2832C16.1352 5.2832 15.902 5.37978 15.7301 5.55169C15.5582 5.7236 15.4616 5.95675 15.4616 6.19987V15.3665C15.4616 15.6097 15.5582 15.8428 15.7301 16.0147C15.902 16.1866 16.1352 16.2832 16.3783 16.2832C16.6214 16.2832 16.8546 16.1866 17.0265 16.0147C17.1984 15.8428 17.295 15.6097 17.295 15.3665V6.19987Z" fill="#F3F3F3"/>
</g>
</svg>
