<svg width="22" height="22" viewBox="0 0 22 22" fill="none" xmlns="http://www.w3.org/2000/svg">
<g id="si:projects-alt-fill">
<path id="Vector" fill-rule="evenodd" clip-rule="evenodd" d="M4.94992 1.83325H17.0499C17.8765 1.83325 18.6692 2.16161 19.2537 2.7461C19.8382 3.33059 20.1666 4.12333 20.1666 4.94992V17.0499C20.1666 17.8765 19.8382 18.6692 19.2537 19.2537C18.6692 19.8382 17.8765 20.1666 17.0499 20.1666H4.94992C4.12333 20.1666 3.33059 19.8382 2.7461 19.2537C2.16161 18.6692 1.83325 17.8765 1.83325 17.0499V4.94992C1.83325 4.12333 2.16161 3.33059 2.7461 2.7461C3.33059 2.16161 4.12333 1.83325 4.94992 1.83325ZM6.41659 4.58325C6.6597 4.58325 6.89286 4.67983 7.06477 4.85174C7.23667 5.02365 7.33325 5.2568 7.33325 5.49992V12.8333C7.33325 13.0764 7.23667 13.3095 7.06477 13.4814C6.89286 13.6533 6.6597 13.7499 6.41659 13.7499C6.17347 13.7499 5.94031 13.6533 5.7684 13.4814C5.5965 13.3095 5.49992 13.0764 5.49992 12.8333V5.49992C5.49992 5.2568 5.5965 5.02365 5.7684 4.85174C5.94031 4.67983 6.17347 4.58325 6.41659 4.58325ZM10.9999 4.58325C11.243 4.58325 11.4762 4.67983 11.6481 4.85174C11.82 5.02365 11.9166 5.2568 11.9166 5.49992V10.9999C11.9166 11.243 11.82 11.4762 11.6481 11.6481C11.4762 11.82 11.243 11.9166 10.9999 11.9166C10.7568 11.9166 10.5236 11.82 10.3517 11.6481C10.1798 11.4762 10.0833 11.243 10.0833 10.9999V5.49992C10.0833 5.2568 10.1798 5.02365 10.3517 4.85174C10.5236 4.67983 10.7568 4.58325 10.9999 4.58325ZM16.4999 5.49992C16.4999 5.2568 16.4033 5.02365 16.2314 4.85174C16.0595 4.67983 15.8264 4.58325 15.5833 4.58325C15.3401 4.58325 15.107 4.67983 14.9351 4.85174C14.7632 5.02365 14.6666 5.2568 14.6666 5.49992V14.6666C14.6666 14.9097 14.7632 15.1429 14.9351 15.3148C15.107 15.4867 15.3401 15.5833 15.5833 15.5833C15.8264 15.5833 16.0595 15.4867 16.2314 15.3148C16.4033 15.1429 16.4999 14.9097 16.4999 14.6666V5.49992Z" fill="#E1E1E1"/>
</g>
</svg>
