<svg width="30" height="27" viewBox="0 0 30 27" fill="none" xmlns="http://www.w3.org/2000/svg">
<g id="sketch">
<path id="Vector" fill-rule="evenodd" clip-rule="evenodd" d="M6.04402 9.67334L14.7853 26.686L0.0927734 9.67334H6.04402Z" fill="#EA6C00"/>
<path id="Vector_2" fill-rule="evenodd" clip-rule="evenodd" d="M23.5287 9.67334L14.7874 26.686L29.48 9.67334H23.5287Z" fill="#EA6C00"/>
<path id="Vector_3" fill-rule="evenodd" clip-rule="evenodd" d="M6.04419 9.67334H23.5268L14.7855 26.686L6.04419 9.67334Z" fill="#FDAD00"/>
<path id="Vector_4" fill-rule="evenodd" clip-rule="evenodd" d="M14.7855 0.244629L6.50427 1.11506L6.04419 9.67305L14.7855 0.244629Z" fill="#FDD231"/>
<path id="Vector_5" fill-rule="evenodd" clip-rule="evenodd" d="M14.7843 0.244629L23.0655 1.11506L23.5256 9.67305L14.7843 0.244629Z" fill="#FDD231"/>
<path id="Vector_6" fill-rule="evenodd" clip-rule="evenodd" d="M29.48 9.67275L23.0687 1.11475L23.5287 9.67275H29.48Z" fill="#FDAD00"/>
<path id="Vector_7" fill-rule="evenodd" clip-rule="evenodd" d="M0.0927734 9.67275L6.50409 1.11475L6.04401 9.67275H0.0927734Z" fill="#FDAD00"/>
<path id="Vector_8" fill-rule="evenodd" clip-rule="evenodd" d="M14.7855 0.244629L6.04419 9.67305H23.5268L14.7855 0.244629Z" fill="#FEEEB7"/>
</g>
</svg>
