<svg width="31" height="30" viewBox="0 0 31 30" fill="none" xmlns="http://www.w3.org/2000/svg">
<g id="slack">
<path id="Vector" fill-rule="evenodd" clip-rule="evenodd" d="M11.4584 0.38623C9.8371 0.387429 8.52499 1.70313 8.52619 3.32439C8.52499 4.94565 9.83829 6.26135 11.4596 6.26255H14.3929V3.32559C14.3941 1.70433 13.0808 0.388627 11.4584 0.38623C11.4596 0.38623 11.4596 0.38623 11.4584 0.38623ZM11.4584 8.22292H3.63845C2.01719 8.22411 0.703883 9.53981 0.705081 11.1611C0.702685 12.7823 2.01599 14.098 3.63725 14.1004H11.4584C13.0796 14.0992 14.3929 12.7835 14.3917 11.1623C14.3929 9.53981 13.0796 8.22411 11.4584 8.22292Z" fill="#36C5F0"/>
<path id="Vector_2" fill-rule="evenodd" clip-rule="evenodd" d="M30.0336 11.1611C30.0348 9.53981 28.7215 8.22411 27.1002 8.22292C25.4789 8.22411 24.1656 9.53981 24.1668 11.1611V14.1004H27.1002C28.7215 14.0992 30.0348 12.7835 30.0336 11.1611ZM22.2125 11.1611V3.32439C22.2137 1.70433 20.9016 0.388627 19.2803 0.38623C17.659 0.387429 16.3457 1.70313 16.3469 3.32439V11.1611C16.3445 12.7823 17.6578 14.098 19.2791 14.1004C20.9004 14.0992 22.2137 12.7835 22.2125 11.1611Z" fill="#2EB67D"/>
<path id="Vector_3" fill-rule="evenodd" clip-rule="evenodd" d="M19.2788 29.774C20.9001 29.7728 22.2134 28.4571 22.2122 26.8358C22.2134 25.2146 20.9001 23.8989 19.2788 23.8977H16.3455V26.8358C16.3443 28.4559 17.6576 29.7716 19.2788 29.774ZM19.2788 21.9361H27.0999C28.7212 21.9349 30.0345 20.6192 30.0333 18.9979C30.0357 17.3767 28.7224 16.061 27.1011 16.0586H19.28C17.6588 16.0598 16.3455 17.3755 16.3467 18.9968C16.3455 20.6192 17.6576 21.9349 19.2788 21.9361Z" fill="#ECB22E"/>
<path id="Vector_4" fill-rule="evenodd" clip-rule="evenodd" d="M0.705079 18.9977C0.703881 20.619 2.01718 21.9347 3.63844 21.9359C5.2597 21.9347 6.57301 20.619 6.57181 18.9977V16.0596H3.63844C2.01718 16.0608 0.703881 17.3765 0.705079 18.9977ZM8.52619 18.9977V26.8344C8.52379 28.4557 9.83709 29.7714 11.4584 29.7738C13.0796 29.7726 14.3929 28.4569 14.3917 26.8356V19.0001C14.3941 17.3789 13.0808 16.0632 11.4596 16.0608C9.83709 16.0608 8.52499 17.3765 8.52619 18.9977Z" fill="#E01E5A"/>
</g>
</svg>
