<svg width="30" height="29" viewBox="0 0 30 29" fill="none" xmlns="http://www.w3.org/2000/svg">
<g id="xd">
<path id="Vector" d="M5.29683 0.162109H24.2763C27.1538 0.162109 29.4804 2.48863 29.4804 5.36616V23.611C29.4804 26.4885 27.1538 28.815 24.2763 28.815H5.29683C2.41929 28.815 0.0927734 26.4885 0.0927734 23.611V5.36616C0.0927734 2.48863 2.41929 0.162109 5.29683 0.162109Z" fill="#470137"/>
<path id="Vector_2" d="M15.5468 7.69246L11.8734 13.7537L15.7917 20.1822C15.8162 20.2312 15.8285 20.2801 15.8162 20.3291C15.804 20.3781 15.755 20.3414 15.6815 20.3536H12.8775C12.6816 20.3536 12.5469 20.3414 12.4611 20.2189C12.204 19.7046 11.9346 19.2026 11.6775 18.6883C11.4203 18.1863 11.1387 17.672 10.8448 17.1455C10.551 16.6189 10.2571 16.0924 9.9632 15.5536H9.93871C9.68157 16.0802 9.39994 16.6067 9.11831 17.1332C8.83668 17.6598 8.55505 18.1863 8.28566 18.7006C8.00403 19.2148 7.7224 19.7414 7.44077 20.2434C7.39179 20.3659 7.29383 20.3781 7.15914 20.3781H4.46527C4.41629 20.3781 4.37956 20.4026 4.37956 20.3414C4.36731 20.2924 4.37956 20.2434 4.40405 20.2067L8.21219 13.9618L4.50201 7.68022C4.46527 7.63124 4.45303 7.58226 4.47752 7.55777C4.50201 7.52103 4.55099 7.50879 4.59997 7.50879H7.37954C7.44077 7.50879 7.50199 7.52103 7.55097 7.53328C7.59995 7.55777 7.63668 7.5945 7.67342 7.64348C7.90607 8.17001 8.17546 8.69654 8.45709 9.22307C8.75096 9.74959 9.03259 10.2639 9.33872 10.7782C9.63259 11.2924 9.90198 11.8067 10.1591 12.3333H10.1836C10.4407 11.7945 10.7101 11.268 10.9795 10.7537C11.2489 10.2394 11.5305 9.7251 11.8122 9.21082C12.0938 8.69654 12.3632 8.17001 12.6326 7.66797C12.6448 7.61899 12.6693 7.57001 12.706 7.54552C12.755 7.52103 12.804 7.50879 12.8652 7.52103H15.4489C15.5101 7.50879 15.5713 7.54552 15.5836 7.60675C15.5958 7.61899 15.5713 7.66797 15.5468 7.69246Z" fill="#FF61F6"/>
<path id="Vector_3" d="M21.2034 20.6111C20.2973 20.6233 19.3911 20.4396 18.5707 20.06C17.7993 19.7049 17.1626 19.1172 16.7218 18.3947C16.2687 17.6478 16.0483 16.7172 16.0483 15.6029C16.0361 14.6968 16.2687 13.8029 16.7218 13.0193C17.1871 12.2234 17.8605 11.5621 18.6687 11.1213C19.5258 10.6438 20.5544 10.4111 21.7666 10.4111C21.8279 10.4111 21.9136 10.4111 22.0238 10.4234C22.134 10.4356 22.2564 10.4356 22.4034 10.4479V6.57849C22.4034 6.49278 22.4401 6.4438 22.5258 6.4438H25.0115C25.0728 6.43155 25.1217 6.48053 25.134 6.52951C25.134 6.54176 25.134 6.554 25.134 6.554V18.2111C25.134 18.4315 25.1462 18.6764 25.1585 18.9458C25.183 19.2029 25.1952 19.4478 25.2074 19.656C25.2074 19.7417 25.1707 19.8152 25.085 19.8519C24.4483 20.1213 23.7748 20.3172 23.0891 20.4396C22.4646 20.5498 21.8401 20.6111 21.2034 20.6111ZM22.4034 18.1621V12.7744C22.2932 12.7499 22.183 12.7254 22.0728 12.7131C21.9381 12.7009 21.8034 12.6887 21.6687 12.6887C21.1911 12.6887 20.7136 12.7866 20.285 13.007C19.8687 13.2152 19.5136 13.5213 19.2442 13.9131C18.9748 14.305 18.8401 14.8315 18.8401 15.4682C18.8279 15.8968 18.9014 16.3254 19.0483 16.7295C19.1707 17.0601 19.3544 17.3539 19.5993 17.5988C19.832 17.8192 20.1136 17.9907 20.432 18.0886C20.7626 18.1988 21.1054 18.2478 21.4483 18.2478C21.632 18.2478 21.8034 18.2356 21.9626 18.2233C22.1217 18.2356 22.2564 18.2111 22.4034 18.1621Z" fill="#FF61F6"/>
</g>
</svg>
